<?xml version="1.0" encoding="UTF-8" standalone="no"?>
<svg
   xmlns:dc="http://purl.org/dc/elements/1.1/"
   xmlns:cc="http://creativecommons.org/ns#"
   xmlns:rdf="http://www.w3.org/1999/02/22-rdf-syntax-ns#"
   xmlns:svg="http://www.w3.org/2000/svg"
   xmlns="http://www.w3.org/2000/svg"
   xmlns:sodipodi="http://sodipodi.sourceforge.net/DTD/sodipodi-0.dtd"
   xmlns:inkscape="http://www.inkscape.org/namespaces/inkscape"
   id="a8ebc32a-e748-45d9-a61d-aeebf59cfff3"
   data-name="Layer 1"
   width="1121.00005"
   height="607.96199"
   viewBox="0 0 1121.00005 607.96199"
   version="1.1"
   sodipodi:docname="undraw_source_code_xx2e.svg"
   inkscape:version="1.0.1 (3bc2e813f5, 2020-09-07)">
  <metadata
     id="metadata105">
    <rdf:RDF>
      <cc:Work
         rdf:about="">
        <dc:format>image/svg+xml</dc:format>
        <dc:type
           rdf:resource="http://purl.org/dc/dcmitype/StillImage" />
        <dc:title>source_code</dc:title>
      </cc:Work>
    </rdf:RDF>
  </metadata>
  <defs
     id="defs103" />
  <sodipodi:namedview
     pagecolor="#ffffff"
     bordercolor="#666666"
     borderopacity="1"
     objecttolerance="10"
     gridtolerance="10"
     guidetolerance="10"
     inkscape:pageopacity="0"
     inkscape:pageshadow="2"
     inkscape:window-width="1920"
     inkscape:window-height="1027"
     id="namedview101"
     showgrid="false"
     inkscape:zoom="0.92952721"
     inkscape:cx="353.40547"
     inkscape:cy="260.94836"
     inkscape:window-x="-8"
     inkscape:window-y="-8"
     inkscape:window-maximized="1"
     inkscape:current-layer="a8ebc32a-e748-45d9-a61d-aeebf59cfff3" />
  <title
     id="title2">source_code</title>
  <path
     d="M206.14789,544.70467a92.17222,92.17222,0,0,1,32.02368-16.68392c32.65823-9.34364,66.44317-.29958,99.11525,8.44757,17.6391,4.72171,35.87786,9.60454,53.86608,11.6155,28.82416,3.22318,55.69008-1.27495,77.69306-13.0071,24.729-13.18383,42.54045-35.87523,47.64829-60.69279a70.48407,70.48407,0,0,0,1.28593-9.521q-3.65463,2.25441-7.33528,4.44022c-25.80935,15.32748-62.0852,29.65826-88.32908,10.88062-10.07437-7.20721-16.61059-19.25066-17.93452-33.0403-1.41783-14.77612,3.3362-29.50912,12.71615-39.40907a47.998,47.998,0,0,1,4.90566-4.50207c19.01181-15.17609,49.02343-15.99439,70.07515-.995,17.82789,12.70265,28.38926,35.65507,28.05028,58.93481a524.84185,524.84185,0,0,0,44.16619-30.97039l1.23084,1.57655a526.67316,526.67316,0,0,1-45.47066,31.79851,72.51073,72.51073,0,0,1-1.40193,11.21038c-5.22638,25.39384-23.41987,48.59132-48.66557,62.05449-22.36144,11.92331-49.62963,16.49823-78.857,13.23013-18.13781-2.02774-36.45006-6.93064-54.16067-11.6715-33.90127-9.07553-65.922-17.64846-98.04825-8.457-32.29131,9.23821-58.37466,37.579-64.90838,70.52114-6.53632,32.94354,6.75568,69.09513,33.07392,89.95877l-1.24263,1.56781c-26.89056-21.31772-40.47084-58.2563-33.7937-91.91573C176.16613,578.32112,188.82685,558.53,206.14789,544.70467Zm311.75247-82.2679c.75634-23.07932-9.54778-46.0053-27.18335-58.57032-22.18626-15.80879-54.652-13.45341-72.36735,5.24286-8.98829,9.48739-13.54065,23.634-12.17693,37.84291,1.2683,13.2143,7.503,24.73436,17.10678,31.60559,25.366,18.1489,60.84664,4.04919,86.14458-10.97506Q513.67887,465.05645,517.90036,462.43677Z"
     fill="#3f3d56"
     id="path4"
     transform="translate(-39.49997 -146.019)" />
  <ellipse
     cx="356.49664"
     cy="554.88617"
     rx="356.49664"
     ry="36.667946"
     fill="#3f3d56"
     id="ellipse6"
     style="stroke-width:1.90015" />
  <path
     d="m 96.006098,538.60661 -1.07324,-0.40235 c -0.23584,-0.0889 -23.7085,-9.082 -34.7041,-29.47363 -10.99609,-20.39258 -5.61182,-44.94531 -5.55615,-45.19043 l 0.25342,-1.11816 1.07275,0.40234 c 0.23584,0.0889 23.708,9.082 34.7041,29.47363 10.996092,20.39258 5.61182,44.94532 5.55615,45.19043 z m -34.0166,-30.8252 c 9.29639,17.24121 27.84522,26.0791 32.54492,28.09668 0.89356,-5.03711 3.6958,-25.40625 -5.59228,-42.63086 -9.28711,-17.22265 -27.84326,-26.07422 -32.54492,-28.09668 -0.894,5.04004 -3.69532,25.40723 5.59228,42.63086 z"
     fill="#3f3d56"
     id="path48"
     style="fill:#008080" />
  <path
     d="m 68.635098,503.10394 c 19.76056,11.88861 27.371,35.50267 27.371,35.50267 0,0 -24.42779,4.33881 -44.18835,-7.5498 -19.76056,-11.88861 -27.371,-35.50267 -27.371,-35.50267 0,0 24.42778,-4.33881 44.18835,7.5498 z"
     fill="#6c63ff"
     id="path50"
     style="fill:#008080" />
  <path
     d="M546.49992,442.819H1003.6838c86.60721,0,156.81623-49.36333,156.81623-135.97054v-.00032c0-86.60721-70.209-122.70511-156.81623-122.70511H860.13237c-173.21442,0-313.63245,85.46124-313.63245,258.67566Z"
     fill="#3f3d56"
     id="path52"
     transform="translate(-39.49997 -146.019)" />
  <path
     d="M978.16306,421.84037H597.66892v-1c0-68.02539,26.50391-124.06933,76.64648-162.07373,46.30371-35.09473,110.168-53.645,184.68946-53.645h119.1582c38.00488,0,70.03027,8.35059,92.61621,24.14844,25.58106,17.894,38.55176,44.37451,38.55176,78.70508,0,34.50439-13.31055,63.6084-38.49317,84.166C1047.3779,411.2935,1014.46579,421.84037,978.16306,421.84037Zm-378.49219-2H978.16306c77.25977,0,129.168-44.95508,129.168-111.86474,0-64.09424-47.08008-100.854-129.168-100.854H859.00486C733.90134,207.12162,600.24118,263.03471,599.67087,419.84037Z"
     transform="translate(-39.49997 -146.019)"
     fill="#6c63ff"
     id="path54"
     style="fill:#008080" />
  <rect
     x="701"
     y="125.96199"
     width="54"
     height="13"
     fill="#6c63ff"
     id="rect56" />
  <rect
     x="923"
     y="125.96199"
     width="19"
     height="13"
     fill="#6c63ff"
     id="rect58" />
  <rect
     x="961"
     y="125.96199"
     width="19"
     height="13"
     fill="#6c63ff"
     id="rect60" />
  <rect
     x="774"
     y="125.96199"
     width="129"
     height="13"
     fill="#6c63ff"
     id="rect62" />
  <rect
     x="633"
     y="209.96199"
     width="54"
     height="13"
     fill="#6c63ff"
     id="rect64" />
  <rect
     x="855"
     y="209.96199"
     width="19"
     height="13"
     fill="#6c63ff"
     id="rect66" />
  <rect
     x="893"
     y="209.96199"
     width="19"
     height="13"
     fill="#6c63ff"
     id="rect68" />
  <rect
     x="706"
     y="209.96199"
     width="129"
     height="13"
     fill="#6c63ff"
     id="rect70" />
  <rect
     x="856"
     y="154.96199"
     width="54"
     height="13"
     fill="#6c63ff"
     id="rect72" />
  <rect
     x="929"
     y="154.96199"
     width="54"
     height="13"
     fill="#6c63ff"
     id="rect74" />
  <rect
     x="1002"
     y="154.96199"
     width="19"
     height="13"
     fill="#6c63ff"
     id="rect76" />
  <rect
     x="633"
     y="154.96199"
     width="19"
     height="13"
     fill="#6c63ff"
     id="rect78" />
  <rect
     x="671"
     y="154.96199"
     width="19"
     height="13"
     fill="#6c63ff"
     id="rect80" />
  <rect
     x="709"
     y="154.96199"
     width="129"
     height="13"
     fill="#6c63ff"
     id="rect82" />
  <rect
     x="783.49997"
     y="328.981"
     width="54"
     height="13"
     transform="translate(1581.49997 524.94299) rotate(-180)"
     fill="#6c63ff"
     id="rect84" />
  <rect
     x="710.49997"
     y="328.981"
     width="54"
     height="13"
     transform="translate(1435.49997 524.94299) rotate(-180)"
     fill="#6c63ff"
     id="rect86" />
  <rect
     x="672.49997"
     y="328.981"
     width="19"
     height="13"
     transform="translate(1324.49997 524.94299) rotate(-180)"
     fill="#6c63ff"
     id="rect88" />
  <rect
     x="1041.49997"
     y="328.981"
     width="19"
     height="13"
     transform="translate(2062.49997 524.94299) rotate(-180)"
     fill="#6c63ff"
     id="rect90" />
  <rect
     x="1003.49997"
     y="328.981"
     width="19"
     height="13"
     transform="translate(1986.49997 524.94299) rotate(-180)"
     fill="#6c63ff"
     id="rect92" />
  <rect
     x="855.49997"
     y="328.981"
     width="129"
     height="13"
     transform="translate(1800.49997 524.94299) rotate(-180)"
     fill="#6c63ff"
     id="rect94" />
  <path
     d="m 484.42338,363.35238 c -5.01266,1.69284 -9.5539,5.65228 -10.58039,10.84253 -0.47582,2.40592 -0.18409,4.907 -0.58451,7.32661 -0.92865,5.61161 -5.33358,9.89722 -9.39638,13.878 -4.0628,3.98078 -8.2584,8.60617 -8.55492,14.28636 -0.3247,6.22 4.1862,12.047 3.40563,18.22633 -0.90687,7.17909 -8.48947,11.831 -10.36389,18.82016 -1.25164,4.667 0.28211,9.6942 2.8055,13.81484 4.80858,7.85232 13.0279,13.18324 21.78085,16.04101 8.75295,2.85777 18.07506,3.45905 27.28222,3.55552 11.21079,0.11746 23.38277,-0.845 31.806,-8.244 a 25.48043,25.48043 0 0 0 8.459,-16.58821 c 0.8002,-8.57064 -2.77695,-17.42641 -0.30951,-25.67311 1.55287,-5.19 5.44709,-9.93 4.86592,-15.316 -0.56823,-5.26625 -5.16773,-8.99907 -8.32312,-13.25346 -2.9461,-3.97222 -4.7338,-8.66319 -6.48587,-13.28794 l -5.99481,-15.82383 c -1.17848,-3.1107 -2.47257,-6.38232 -5.09885,-8.424 -4.91665,-3.8221 -12.82242,-3.07115 -18.57152,-2.28285 -5.33345,0.7313 -11.01234,0.3699 -16.14135,2.10204 z"
     fill="#2f2e41"
     id="path72" />
  <path
     d="m 486.30079,409.44711 c 0,0 2.65748,8.63681 -17.27362,18.60236 -19.9311,9.96555 1.99311,20.59548 1.99311,20.59548 l 23.25295,5.315 c 0,0 23.91732,-3.32185 26.5748,-7.30808 2.65748,-3.98623 7.30808,-17.27362 5.97934,-19.26673 a 31.0614,31.0614 0 0 0 -3.32186,-3.98622 c 0,0 -15.94488,-2.65748 -15.28051,-9.96555 0.66437,-7.30807 -21.92421,-3.98626 -21.92421,-3.98626 z"
     fill="#ffb9b9"
     id="path74" />
  <path
     d="m 486.30079,409.44711 c 0,0 2.65748,8.63681 -17.27362,18.60236 -19.9311,9.96555 1.99311,20.59548 1.99311,20.59548 l 23.25295,5.315 c 0,0 23.91732,-3.32185 26.5748,-7.30808 2.65748,-3.98623 7.30808,-17.27362 5.97934,-19.26673 a 31.0614,31.0614 0 0 0 -3.32186,-3.98622 c 0,0 -15.94488,-2.65748 -15.28051,-9.96555 0.66437,-7.30807 -21.92421,-3.98626 -21.92421,-3.98626 z"
     opacity="0.1"
     id="path76" />
  <circle
     cx="499.25601"
     cy="401.80688"
     r="21.25984"
     fill="#ffb9b9"
     id="circle78" />
  <path
     d="m 496.93073,446.65183 c 0,0 -25.60367,-1.87245 -26.08923,-19.53858 0,0 -9.12238,-1.05689 -11.77986,1.60059 -2.65748,2.65748 -11.2943,4.65059 -11.2943,11.29429 0,6.6437 14.61615,26.57482 14.61615,26.57482 0,0 7.97244,26.5748 4.65059,31.22539 -3.32185,4.65059 -3.98622,16.60925 -3.98622,16.60925 0,0 33.2185,-2.65748 38.53346,0 5.31496,2.65748 26.57481,2.65748 27.90355,0 1.32874,-2.65748 -1.32874,-35.876 -1.32874,-35.876 0,0 5.97933,-7.97244 4.65059,-17.27362 l 15.94486,-18.60233 c 0,0 -5.97933,-17.938 -15.28051,-17.938 0,0 -12.623,-3.32185 -12.95522,-1.66092 -0.33222,1.66093 6.31152,20.26326 -23.58512,23.58511 z"
     fill="#ff6584"
     id="path80"
     style="fill:#008080" />
  <path
     d="m 437.1374,505.11641 c 0,0 5.97933,9.30118 21.25985,11.29429 15.28052,1.99311 17.938,-3.32185 16.60925,-4.65059 -1.32875,-1.32874 -17.27362,-7.30807 -17.27362,-7.30807 l -9.30119,-7.30807 z"
     fill="#ffb9b9"
     id="path82" />
  <path
     d="m 546.0941,497.14397 -17.27362,9.96555 c 0,0 -22.58859,-1.32874 -13.95178,5.315 8.63681,6.64374 24.5817,3.98622 24.5817,3.98622 l 15.28051,-7.30807 z"
     fill="#ffb9b9"
     id="path84" />
  <path
     d="m 459.72599,514.41759 c 0,0 -15.94489,39.19784 3.32185,45.17717 19.26674,5.97933 72.41634,4.65059 84.375,-3.32185 11.95866,-7.97244 15.28051,-18.60236 13.2874,-21.92421 -1.99311,-3.32185 -15.28051,-12.623 -24.58169,-13.2874 -9.30118,-0.6644 -76.40256,-6.64371 -76.40256,-6.64371 z"
     fill="#2f2e41"
     id="path86" />
  <path
     d="m 459.72599,514.41759 c 0,0 -15.94489,39.19784 3.32185,45.17717 19.26674,5.97933 72.41634,4.65059 84.375,-3.32185 11.95866,-7.97244 15.28051,-18.60236 13.2874,-21.92421 -1.99311,-3.32185 -15.28051,-12.623 -24.58169,-13.2874 -9.30118,-0.6644 -76.40256,-6.64371 -76.40256,-6.64371 z"
     opacity="0.05"
     id="path88" />
  <path
     d="m 534.99039,516.85283 c 0,0 56.28087,-20.37323 55.6165,4.20847 -0.66437,24.5817 -35.876,31.22539 -35.876,31.22539 l -10.62992,1.32874 -58.46457,1.99311 c 0,0 1.99311,-10.62992 -2.65748,-11.95866 0,0 15.28051,-3.98622 15.94488,-4.65059 0.66437,-0.66437 38.53347,-13.95177 41.19095,-14.61614 2.65748,-0.66437 10.62992,-5.97934 16.60925,-5.315 0,0 6.6437,-5.315 13.95177,-3.98622 l -20.59547,1.32874 z"
     fill="#2f2e41"
     id="path90" />
  <path
     d="m 534.99039,516.85283 c 0,0 56.28087,-20.37323 55.6165,4.20847 -0.66437,24.5817 -35.876,31.22539 -35.876,31.22539 l -10.62992,1.32874 -58.46457,1.99311 c 0,0 1.99311,-10.62992 -2.65748,-11.95866 0,0 15.28051,-3.98622 15.94488,-4.65059 0.66437,-0.66437 38.53347,-13.95177 41.19095,-14.61614 2.65748,-0.66437 10.62992,-5.97934 16.60925,-5.315 0,0 6.6437,-5.315 13.95177,-3.98622 l -20.59547,1.32874 z"
     opacity="0.1"
     id="path92" />
  <polygon
     points="554.035,527.347 544.187,530.004 534.434,533.081 541.53,549.271 584.714,533.99 588.036,525.354 576.741,523.36 "
     fill="#2f2e41"
     id="polygon94"
     transform="translate(-9.3872743,-12.92905)" />
  <polygon
     points="554.035,527.347 544.187,530.004 534.434,533.081 541.53,549.271 584.714,533.99 588.036,525.354 576.741,523.36 "
     opacity="0.1"
     id="polygon96"
     transform="translate(-9.3872743,-12.92905)" />
  <path
     d="m 433.15118,539.66365 c 0,0 12.623,15.94488 27.23918,19.9311 14.61618,3.98622 22.58858,-1.32874 22.58858,-1.32874 l -4.65059,-18.60236 -1.99311,-11.95866 -8.63681,-5.97934 -17.27363,-7.97245 -20.59547,-6.6437 c 0,0 -8.63681,-1.32874 -8.63681,0 0,1.32874 7.97244,21.25985 7.97244,21.25985 z"
     fill="#2f2e41"
     id="path98" />
  <path
     d="m 448.43173,548.30047 c 0,0 2.65748,19.26673 5.97934,20.59547 3.32186,1.32874 13.2874,-1.32874 15.94488,-2.65748 2.65748,-1.32874 11.69054,-7.45919 11.69054,-7.45919 0,0 -31.62169,-11.80754 -33.61476,-10.4788 z"
     fill="#f2f2f2"
     id="path100" />
  <polygon
     points="530.9,565.216 529.571,580.496 511.964,576.22 518.277,563.223 "
     fill="#ffb9b9"
     id="polygon102"
     transform="translate(-9.3872743,-12.92905)" />
  <path
     d="m 516.7984,554.5462 c 0,0 -5.91592,7.04167 0.0634,11.02789 l 3.98622,3.32185 c 0,0 13.28741,2.65748 14.61615,3.98622 1.32874,1.32874 6.6437,-1.99311 6.6437,-1.99311 0,0 0.66437,-19.9311 0,-21.25984 -0.66437,-1.32874 -8.63681,-2.65748 -9.30118,-1.32874 -0.66437,1.32874 -8.63682,3.32185 -13.28741,1.99311 z"
     fill="#f2f2f2"
     id="path104" />
  <path
     d="m 463.71221,519.06818 c 0,0 -46.50591,-27.23917 -53.814,-17.27362 -7.30809,9.96555 -15.28051,23.91733 5.97933,34.54725 21.25984,10.62992 87.69685,32.55413 87.69685,32.55413 0,0 9.96555,-15.28051 9.96555,-19.26673 0,0 -35.21161,-15.94488 -41.19094,-17.27362 -5.97933,-1.32874 -29.89666,-16.60926 -33.21851,-17.938 -3.32185,-1.32874 -7.97244,-5.315 -7.97244,-5.315 z"
     fill="#2f2e41"
     id="path106" />
  <path
     d="m 450.4248,436.68628 -2.65748,1.99311 c 0,0 -5.97933,15.28052 -6.6437,23.91734 -0.66437,8.63681 -8.63681,35.21161 -7.97244,38.53346 0.66437,3.32185 1.32874,5.97933 5.315,9.30118 0,0 5.315,-11.95866 14.61615,-9.96555 l 11.29429,-41.19095 z"
     fill="#ff6584"
     id="path108"
     style="fill:#008080" />
  <path
     d="m 543.43662,436.68628 5.315,5.97933 c 0,0 3.32185,7.97245 3.32185,9.96556 0,1.99311 6.6437,31.2254 7.30807,32.55414 0.66437,1.32874 3.32185,17.938 0,21.92421 -3.32185,3.98621 -9.30118,6.6437 -9.30118,6.6437 0,0 3.98622,-13.95177 -8.63681,-14.61614 l 1.32874,-5.315 -11.95866,-39.86221 z"
     fill="#ff6584"
     id="path110"
     style="fill:#008080" />
  <path
     d="m 451.75355,482.42727 v 34.9949 a 8.41342,8.41342 0 0 0 8.2888,8.41251 l 73.18511,1.08423 a 8.41344,8.41344 0 0 0 8.53185,-8.08916 l 1.34611,-34.999 a 8.41344,8.41344 0 0 0 -8.28529,-8.73591 l -74.53123,-1.08016 a 8.41342,8.41342 0 0 0 -8.53535,8.41259 z"
     fill="#3f3d56"
     id="path112" />
  <ellipse
     cx="500.50284"
     cy="388.80295"
     rx="22.884121"
     ry="12.32222"
     fill="#2f2e41"
     id="ellipse114" />
  <circle
     cx="496.59854"
     cy="500.798"
     r="5.31496"
     fill="#f2f2f2"
     id="circle116" />
  <ellipse
     cx="500.79224"
     cy="558.34839"
     rx="166.61372"
     ry="26.151632"
     opacity="0.1"
     id="ellipse8-0"
     style="stroke-width:1.04896" />
</svg>
