<?xml version="1.0" encoding="UTF-8" standalone="no"?>
<svg
   xmlns:dc="http://purl.org/dc/elements/1.1/"
   xmlns:cc="http://creativecommons.org/ns#"
   xmlns:rdf="http://www.w3.org/1999/02/22-rdf-syntax-ns#"
   xmlns:svg="http://www.w3.org/2000/svg"
   xmlns="http://www.w3.org/2000/svg"
   xmlns:sodipodi="http://sodipodi.sourceforge.net/DTD/sodipodi-0.dtd"
   xmlns:inkscape="http://www.inkscape.org/namespaces/inkscape"
   id="a8ebc32a-e748-45d9-a61d-aeebf59cfff3"
   data-name="Layer 1"
   width="1121.00005"
   height="607.96199"
   viewBox="0 0 1121.00005 607.96199"
   version="1.1"
   sodipodi:docname="landing.svg"
   inkscape:version="1.0.1 (3bc2e813f5, 2020-09-07)"
   inkscape:export-filename="C:\dev\Portfolio\images\landing.png"
   inkscape:export-xdpi="96"
   inkscape:export-ydpi="96">
  <metadata
     id="metadata105">
    <rdf:RDF>
      <cc:Work
         rdf:about="">
        <dc:format>image/svg+xml</dc:format>
        <dc:type
           rdf:resource="http://purl.org/dc/dcmitype/StillImage" />
        <dc:title>source_code</dc:title>
      </cc:Work>
    </rdf:RDF>
  </metadata>
  <defs
     id="defs103" />
  <sodipodi:namedview
     pagecolor="#ffffff"
     bordercolor="#666666"
     borderopacity="1"
     objecttolerance="10"
     gridtolerance="10"
     guidetolerance="10"
     inkscape:pageopacity="0"
     inkscape:pageshadow="2"
     inkscape:window-width="1920"
     inkscape:window-height="1027"
     id="namedview101"
     showgrid="false"
     inkscape:zoom="0.92952721"
     inkscape:cx="353.40547"
     inkscape:cy="260.94836"
     inkscape:window-x="-8"
     inkscape:window-y="-8"
     inkscape:window-maximized="1"
     inkscape:current-layer="a8ebc32a-e748-45d9-a61d-aeebf59cfff3"
     inkscape:document-rotation="0" />
  <title
     id="title2">source_code</title>
  <ellipse
     cx="449.01678"
     cy="554.88617"
     rx="449.01678"
     ry="36.667946"
     fill="#3f3d56"
     id="ellipse6"
     style="stroke-width:2.13251" />
  <path
     d="m 96.434657,538.75779 -0.789238,-0.32361 C 95.471987,538.36268 78.210692,531.12964 70.124761,514.7289 62.03847,498.32739 65.997948,478.57993 66.038886,478.38278 l 0.18636,-0.89932 0.788878,0.3236 c 0.173431,0.0715 17.434359,7.30454 25.520657,23.70528 8.086289,16.4015 4.126814,36.14898 4.085875,36.34611 z M 71.419572,513.96545 c 6.836368,13.8669 20.476783,20.9751 23.932843,22.59782 0.657105,-4.05129 2.717812,-20.43394 -4.112444,-34.28748 -6.829544,-13.85197 -20.475342,-20.97118 -23.932843,-22.59782 -0.657429,4.05364 -2.71746,20.43472 4.112444,34.28748 z"
     fill="#3f3d56"
     id="path48"
     style="fill:#008080;stroke-width:0.769062" />
  <path
     d="m 76.306605,510.20342 c 14.531496,9.56186 20.128052,28.55437 20.128052,28.55437 0,0 -17.963678,3.48965 -32.495174,-6.07222 -14.531496,-9.56186 -20.128052,-28.55436 -20.128052,-28.55436 0,0 17.963671,-3.48966 32.495174,6.07221 z"
     fill="#6c63ff"
     id="path50"
     style="fill:#008080;stroke-width:0.769062" />
  <path
     d="m 724.40263,393.71346 c -3.99357,1.39584 -7.61156,4.66062 -8.42936,8.94027 -0.37908,1.98381 -0.14666,4.04609 -0.46568,6.04119 -0.73985,4.62708 -4.24924,8.1608 -7.48607,11.44317 -3.23681,3.28237 -6.57943,7.09626 -6.81567,11.7799 -0.25868,5.12872 3.33513,9.93341 2.71326,15.0286 -0.72251,5.91957 -6.76354,9.75532 -8.25688,15.51827 -0.99718,3.8482 0.22476,7.9934 2.23513,11.39109 3.83098,6.47467 10.37928,10.87031 17.35273,13.2267 6.97344,2.35639 14.40034,2.85218 21.73565,2.93172 8.9316,0.0969 18.62897,-0.69675 25.33973,-6.79762 a 20.30017,21.010019 0 0 0 6.73926,-13.6779 c 0.63751,-7.06696 -2.21239,-14.36904 -0.24659,-21.1689 1.23717,-4.27944 4.33968,-8.18783 3.87667,-12.62888 -0.45271,-4.34232 -4.11712,-7.42024 -6.631,-10.92822 -2.34715,-3.27531 -3.77141,-7.14327 -5.16728,-10.95663 l -4.77604,-13.04762 c -0.93889,-2.56494 -1.96989,-5.26257 -4.06224,-6.94605 -3.91707,-3.15153 -10.21557,-2.53234 -14.79587,-1.88234 -4.24914,0.603 -8.77348,0.305 -12.85975,1.73325 z"
     fill="#2f2e41"
     id="path72"
     style="stroke-width:0.810506" />
  <path
     d="m 725.89835,431.7211 c 0,0 2.11721,7.12153 -13.76183,15.33867 -15.87904,8.21715 1.5879,16.98212 1.5879,16.98212 l 18.52555,4.3825 c 0,0 19.05485,-2.73905 21.17206,-6.02591 2.1172,-3.28687 5.82232,-14.24305 4.76371,-15.88648 a 24.74651,25.611836 0 0 0 -2.64651,-3.28686 c 0,0 -12.70324,-2.19124 -12.17393,-8.21714 0.5293,-6.02591 -17.46695,-3.2869 -17.46695,-3.2869 z"
     fill="#ffb9b9"
     id="path74"
     style="stroke-width:0.810506" />
  <path
     d="m 725.89835,431.7211 c 0,0 2.11721,7.12153 -13.76183,15.33867 -15.87904,8.21715 1.5879,16.98212 1.5879,16.98212 l 18.52555,4.3825 c 0,0 19.05485,-2.73905 21.17206,-6.02591 2.1172,-3.28687 5.82232,-14.24305 4.76371,-15.88648 a 24.74651,25.611836 0 0 0 -2.64651,-3.28686 c 0,0 -12.70324,-2.19124 -12.17393,-8.21714 0.5293,-6.02591 -17.46695,-3.2869 -17.46695,-3.2869 z"
     opacity="0.1"
     id="path76"
     style="stroke-width:0.810506" />
  <ellipse
     cx="736.21973"
     cy="425.42133"
     fill="#ffb9b9"
     id="circle78"
     rx="16.937641"
     ry="17.529909"
     style="stroke-width:0.810506" />
  <path
     d="m 734.3672,462.39845 c 0,0 -20.39837,-1.54394 -20.78521,-16.11064 0,0 -7.26777,-0.87147 -9.38497,1.31978 -2.11721,2.19123 -8.99813,3.83466 -8.99813,9.31276 0,5.4781 11.64463,21.91241 11.64463,21.91241 0,0 6.35162,21.91238 3.70512,25.74705 -2.64651,3.83467 -3.17581,13.69524 -3.17581,13.69524 0,0 26.46506,-2.19124 30.69947,0 4.23441,2.19124 21.17206,2.19124 22.23066,0 1.05861,-2.19124 -1.0586,-29.58174 -1.0586,-29.58174 0,0 4.76372,-6.57371 3.70511,-14.24305 l 12.70322,-15.33865 c 0,0 -4.76371,-14.79086 -12.17393,-14.79086 0,0 -10.05671,-2.73905 -10.32139,-1.36952 -0.26467,1.36952 5.02837,16.70817 -18.79017,19.44722 z"
     fill="#ff6584"
     id="path80"
     style="fill:#008080;stroke-width:0.810506" />
  <path
     d="m 686.73005,510.60572 c 0,0 4.76371,7.66933 16.93765,9.31276 12.17394,1.64343 14.29114,-2.73905 13.23254,-3.83467 -1.05862,-1.09561 -13.76184,-6.0259 -13.76184,-6.0259 l -7.41023,-6.02591 z"
     fill="#ffb9b9"
     id="path82"
     style="stroke-width:0.810506" />
  <path
     d="m 773.53548,504.032 -13.76184,8.21714 c 0,0 -17.99624,-1.09562 -11.11533,4.38251 6.88092,5.47813 19.58416,3.28686 19.58416,3.28686 l 12.17393,-6.0259 z"
     fill="#ffb9b9"
     id="path84"
     style="stroke-width:0.810506" />
  <path
     d="m 704.72631,518.27505 c 0,0 -12.70324,32.32078 2.6465,37.25106 15.34975,4.93029 57.69385,3.83468 67.22127,-2.73904 9.52742,-6.57371 12.17393,-15.33867 10.58603,-18.07772 -1.5879,-2.73905 -12.17393,-10.40836 -19.58415,-10.95619 -7.41022,-0.54784 -60.86965,-5.47811 -60.86965,-5.47811 z"
     fill="#2f2e41"
     id="path86"
     style="stroke-width:0.810506" />
  <path
     d="m 704.72631,518.27505 c 0,0 -12.70324,32.32078 2.6465,37.25106 15.34975,4.93029 57.69385,3.83468 67.22127,-2.73904 9.52742,-6.57371 12.17393,-15.33867 10.58603,-18.07772 -1.5879,-2.73905 -12.17393,-10.40836 -19.58415,-10.95619 -7.41022,-0.54784 -60.86965,-5.47811 -60.86965,-5.47811 z"
     opacity="0.05"
     id="path88"
     style="stroke-width:0.810506" />
  <path
     d="m 764.68919,520.28304 c 0,0 44.83877,-16.79885 44.30947,3.47012 -0.5293,20.26896 -28.58228,25.74706 -28.58228,25.74706 l -8.46882,1.09561 -46.57853,1.64343 c 0,0 1.58791,-8.76495 -2.1172,-9.86058 0,0 12.17393,-3.28686 12.70324,-3.83466 0.5293,-0.54781 30.69948,-11.504 32.81668,-12.05181 2.11721,-0.54782 8.46882,-4.9303 13.23253,-4.38252 0,0 5.29302,-4.38251 11.11533,-3.28686 l -16.40834,1.09563 z"
     fill="#2f2e41"
     id="path90"
     style="stroke-width:0.810506" />
  <path
     d="m 764.68919,520.28304 c 0,0 44.83877,-16.79885 44.30947,3.47012 -0.5293,20.26896 -28.58228,25.74706 -28.58228,25.74706 l -8.46882,1.09561 -46.57853,1.64343 c 0,0 1.58791,-8.76495 -2.1172,-9.86058 0,0 12.17393,-3.28686 12.70324,-3.83466 0.5293,-0.54781 30.69948,-11.504 32.81668,-12.05181 2.11721,-0.54782 8.46882,-4.9303 13.23253,-4.38252 0,0 5.29302,-4.38251 11.11533,-3.28686 l -16.40834,1.09563 z"
     opacity="0.1"
     id="path92"
     style="stroke-width:0.810506" />
  <polygon
     points="541.53,549.271 584.714,533.99 588.036,525.354 576.741,523.36 554.035,527.347 544.187,530.004 534.434,533.081 "
     fill="#2f2e41"
     id="polygon94"
     transform="matrix(0.79669656,0,0,0.82455512,330.98539,83.448676)" />
  <polygon
     points="541.53,549.271 584.714,533.99 588.036,525.354 576.741,523.36 554.035,527.347 544.187,530.004 534.434,533.081 "
     opacity="0.1"
     id="polygon96"
     transform="matrix(0.79669656,0,0,0.82455512,330.98539,83.448676)" />
  <path
     d="m 683.55424,539.09182 c 0,0 10.05671,13.14743 21.70137,16.43429 11.64465,3.28685 17.99624,-1.09562 17.99624,-1.09562 l -3.70511,-15.33867 -1.58791,-9.86058 -6.88091,-4.93029 -13.76184,-6.57372 -16.40834,-5.4781 c 0,0 -6.88092,-1.09562 -6.88092,0 0,1.09562 6.35162,17.52992 6.35162,17.52992 z"
     fill="#2f2e41"
     id="path98"
     style="stroke-width:0.810506" />
  <path
     d="m 695.72821,546.21336 c 0,0 2.1172,15.88647 4.76372,16.98209 2.64651,1.09563 10.58602,-1.09562 12.70323,-2.19123 2.11721,-1.09562 9.31381,-6.15052 9.31381,-6.15052 0,0 -25.19289,-9.73597 -26.78076,-8.64034 z"
     fill="#f2f2f2"
     id="path100"
     style="stroke-width:0.810506" />
  <polygon
     points="518.277,563.223 530.9,565.216 529.571,580.496 511.964,576.22 "
     fill="#ffb9b9"
     id="polygon102"
     transform="matrix(0.79669656,0,0,0.82455512,330.98539,83.448676)" />
  <path
     d="m 750.19569,551.3633 c 0,0 -4.71319,5.80624 0.0505,9.0931 l 3.17582,2.73905 c 0,0 10.58603,2.19124 11.64463,3.28686 1.05861,1.09562 5.29301,-1.64343 5.29301,-1.64343 0,0 0.52931,-16.43429 0,-17.52991 -0.5293,-1.09561 -6.88091,-2.19124 -7.41022,-1.09561 -0.5293,1.09561 -6.88092,2.73904 -10.58603,1.64343 z"
     fill="#f2f2f2"
     id="path104"
     style="stroke-width:0.810506" />
  <path
     d="m 697.31608,517.72723 c 0,0 -40.93062,-24.66564 -47.36259,-15.64163 -6.43197,9.02402 -13.44863,21.65764 5.26251,31.28326 18.71113,9.62561 77.18344,29.47845 77.18344,29.47845 0,0 8.77084,-13.83683 8.77084,-17.44643 0,0 -30.99031,-14.43842 -36.25282,-15.64163 -5.26251,-1.2032 -26.31254,-15.04003 -29.23616,-16.24323 -2.92361,-1.2032 -7.01668,-4.81284 -7.01668,-4.81284 z"
     fill="#2f2e41"
     id="path106"
     style="stroke-width:0.892728" />
  <path
     d="m 697.31608,454.1813 -2.11721,1.64343 c 0,0 -4.76371,12.59963 -5.29301,19.72117 -0.5293,7.12152 -6.88092,29.03391 -6.35162,31.77296 0.5293,2.73905 1.05861,4.93028 4.23444,7.66934 0,0 4.23445,-9.86058 11.64464,-8.21715 l 8.99813,-33.96421 z"
     fill="#ff6584"
     id="path108"
     style="fill:#008080;stroke-width:0.810506" />
  <path
     d="m 771.41828,454.1813 4.23443,4.93029 c 0,0 2.64651,6.57373 2.64651,8.21716 0,1.64342 5.29301,25.74705 5.82232,26.84268 0.5293,1.09562 2.64651,14.79087 0,18.07771 -2.64651,3.28685 -7.41022,5.4781 -7.41022,5.4781 0,0 3.17581,-11.504 -6.88092,-12.05181 l 1.0586,-4.38251 -9.52742,-32.86859 z"
     fill="#ff6584"
     id="path110"
     style="fill:#008080;stroke-width:0.810506" />
  <path
     d="m 698.37469,491.89727 v 28.85522 a 6.7029427,6.9373285 0 0 0 6.60366,6.93658 l 58.30632,0.89401 a 6.7029586,6.937345 0 0 0 6.7973,-6.66996 l 1.07244,-28.85861 a 6.7029586,6.937345 0 0 0 -6.60086,-7.20323 l -59.37878,-0.89066 a 6.7029427,6.9373285 0 0 0 -6.80008,6.93665 z"
     fill="#3f3d56"
     id="path112"
     style="stroke-width:0.810506" />
  <ellipse
     cx="737.21307"
     cy="414.69885"
     rx="18.231701"
     ry="10.160349"
     fill="#2f2e41"
     id="ellipse114"
     style="stroke-width:0.810506" />
  <ellipse
     cx="734.10254"
     cy="507.04495"
     fill="#f2f2f2"
     id="circle116"
     rx="4.2344103"
     ry="4.3824773"
     style="stroke-width:0.810506" />
</svg>
